<svg width="60" height="60" viewBox="0 0 1024 1024" xmlns="http://www.w3.org/2000/svg">
  <rect class="fill-[#38795e]" x="89.39" y="99.37" width="823" height="814.67" rx="159.83" ry="159.83" fill="#38795e"/>
  <rect class="fill-[#1c5a5e]" x="108.79" y="119" width="781.1" height="344" rx="137" ry="137" fill="#1c5a5e"/>
  <rect class="fill-[#686128]" x="107.89" y="548.92" width="782" height="344" rx="137" ry="137" fill="#686128"/>
  <path class="fill-[#38795e]" d="M889.89,673.68l-781.07-13.49-.03-349.64c45.83-3.31,91.67-6.62,137.5-9.93,81.14-5.86,171.91-111.75,253.05-117.61,91.13-6.58,151.53,36.58,242.66,30,42.26-3.05,105.62.05,147.89-3v463.68Z" fill="#38795e"/>
  <path class="fill-[#727d49]" d="M889.89,741.89l-781.07-12.05-.03-312.13c45.83-2.96,91.67-5.91,137.5-8.87,81.14-5.23,171.91-99.76,253.05-104.99,91.13-5.88,151.53,32.66,242.66,26.78,42.26-2.73,105.62.05,147.89-2.68v413.94Z" fill="#727d49"/>
  <path class="fill-[#256439] stroke-[#76ea38]" d="M861,662l13,47c0,13.09,5.39,87.09-7.62,87.17H132.56c-13.11.07-23.77-86.62-23.77-99.81l12.81-48.47c0-5.29,27.33-19.16,30.56-23.34l82.21-140.87c2.12-2.74,121.36-73.24,124.43-74.83l56.72-83.96c2.41-1.24,4.59-2.89,6.44-4.87l66.76-71.37c9.63-10.3,26.01-9.91,35.16.82l24.5,66.43c2.53,2.97,44.43,58.35,48.05,59.76l38.18,55.57c3.18,1.25,9.69,62.81,13.1,62.61l79.68-37.34c6.84-.42,41.81,1.57,46.6,6.51l40,55.67c2.84,2.92,5.64,48.39,6.69,52.33l33.31,50c.54,2.01,7,38.92,7,41Z" fill="#256439" stroke="#76ea38" stroke-width="12"/>
  <path class="fill-[#0e4a34]" d="M820,716c8.06,11.19-56.82,45.89-71.37,45.89H178.39c-10.14.06-18.51-63.26-19.48-79.95-.09-1.63.08-3.26.49-4.84l9.96-37.87c0-3.48,14.19-11.43,21.37-16.28,2.21-1.49,4.03-3.42,5.32-5.65l64.27-110.63c1.36-2.34,3.3-4.35,5.66-5.87,16.19-10.39,79.53-48.08,95.23-57.29,2.31-1.36,4.26-3.18,5.71-5.33l42.45-63.12c1.14-1.7,2.61-3.2,4.33-4.42c1.09-.77,2.1-1.65,3.01-2.63l54.98-59.04c.25-.27.5-.52.76-.77,9.32-8.98,25.75-5.2,30.07,6.57l17.4,47.41c.57,1.56,1.39,3.03,2.43,4.38,6.62,8.56,31.35,41.16,37.06,46.7.85.82,1.61,1.71,2.27,2.67l30.14,44.07c2.62,1.03,7.98,51.96,10.79,51.79,0,0,74.41,134.2,147.41,127.2s70,77,70,77Z" fill="#0e4a34"/>
  <path class="fill-[#686128]" d="M108.79,785c19.3,62.9,70.92,107.92,131.57,107.92h517.95c60.66,0,112.28-45.02,131.57-107.92H108.79Z" fill="#686128"/>
  <circle class="fill-[#f36e21]" cx="756.69" cy="241.17" r="64" fill="#f36e21"/>
</svg>